# This file uses centimeters as units for non-parametric coordinates.

mtllib FryHolder.mtl
g default1
v -14.019828 5.037454 23.315855
v -13.857975 -1.672543 23.315855
v 15.857973 5.758141 23.315855
v 16.019828 -0.951859 23.315855
v 15.857973 5.758141 -20.487298
v 16.019828 -0.951859 -20.487298
v -14.019828 5.037454 -20.487298
v -13.857975 -1.672543 -20.487298
v 6.725651 9.797414 23.315855
v 6.990189 -1.169662 23.315855
v 6.990181 -1.169663 -23.315855
v 6.725642 9.797412 -23.315855
v -5.411421 9.504655 23.315855
v -5.146885 -1.462423 23.315855
v -5.146885 -1.462423 -23.315855
v -5.411421 9.504655 -23.315855
v 6.573957 8.795515 23.315855
v 6.793737 -0.315991 23.315855
v 15.148308 -0.184391 23.315855
v 15.013837 5.390316 23.315855
v -5.198992 8.512204 23.315855
v -4.979210 -0.599305 23.315855
v -13.187617 4.711392 23.315855
v -13.053150 -0.863309 23.315855
v 6.573957 8.795515 6.937271
v 6.793737 -0.315991 6.937271
v 15.148308 -0.184391 6.937271
v 15.013837 5.390316 6.937271
v -5.198992 8.512204 6.937270
v -4.979210 -0.599305 6.937270
v -13.187617 4.711392 6.937269
v -13.053150 -0.863309 6.937269
vt 0.699998 0.571743
vt 0.699998 0.420866
vt 0.834119 0.420866
vt 0.834119 0.517391
vt 0.834119 0.040588
vt 0.942683 0.040588
vt 0.942683 0.736439
vt 0.834119 0.736439
vt 0.360742 0.517411
vt 0.360742 0.420866
vt 0.511711 0.420866
vt 0.511711 0.571753
vt 0.942683 0.736439
vt 0.834119 0.736439
vt 0.834119 0.040588
vt 0.942683 0.040588
vt 0.511711 0.040588
vt 0.511711 0.781373
vt 0.360742 0.736439
vt 0.360742 0.040588
vt 0.699998 0.781373
vt 0.699998 0.040588
vt 0.511711 0.571753
vt 0.511711 0.420866
vt 0.699998 0.040588
vt 0.699998 0.781373
vt 0.699998 0.420866
vt 0.699998 0.571743
vt 0.511711 0.781373
vt 0.511711 0.040588
vt 0.360742 0.517411
vt 0.360742 0.420866
vt 0.834119 0.420866
vt 0.834119 0.517391
vt 0.360742 0.736439
vt 0.360742 0.040588
vt 0.699998 0.420866
vt 0.834119 0.420866
vt 0.834119 0.420866
vt 0.699998 0.420866
vt 0.834119 0.517391
vt 0.834119 0.517391
vt 0.699998 0.571743
vt 0.699998 0.571743
vt 0.511711 0.420866
vt 0.511711 0.420866
vt 0.511711 0.571753
vt 0.511711 0.571753
vt 0.360742 0.517411
vt 0.360742 0.420866
vt 0.360742 0.420866
vt 0.360742 0.517411
vt 0.562058 0.849745
vt 0.633112 0.849206
vt 0.634169 0.988489
vt 0.563115 0.989028
vt 0.680532 0.848845
vt 0.681591 0.988129
vt 0.751586 0.848305
vt 0.752644 0.987589
vt 0.461912 0.850505
vt 0.462969 0.989788
vt 0.851732 0.847544
vt 0.852790 0.986828
vt 0.345796 0.851386
vt 0.393217 0.851026
vt 0.394274 0.990309
vt 0.346853 0.990669
vt 0.920427 0.847022
vt 0.921485 0.986306
vn 0.000000 0.000000 1.000000
vn 0.000000 0.000000 1.000000
vn 0.000000 0.000000 1.000000
vn 0.000000 0.000000 1.000000
vn 0.999709 0.024114 0.000000
vn 0.999709 0.024114 0.000000
vn 0.999709 0.024114 0.000000
vn 0.999709 0.024114 0.000000
vn 0.298763 0.007206 -0.954300
vn 0.298763 0.007206 -0.954300
vn 0.116549 0.002811 -0.993181
vn 0.094957 0.002290 -0.995479
vn -0.999709 -0.024114 0.000000
vn -0.999709 -0.024114 0.000000
vn -0.999709 -0.024114 0.000000
vn -0.999709 -0.024114 0.000000
vn 0.024114 -0.999709 0.000000
vn 0.024114 -0.999709 0.000000
vn 0.024113 -0.999709 0.000000
vn 0.024113 -0.999709 0.000000
vn 0.149350 0.988784 0.000000
vn 0.170118 0.985424 0.000000
vn 0.404504 0.914536 0.000000
vn 0.404504 0.914536 0.000000
vn 0.000000 0.000000 1.000000
vn 0.000000 0.000000 1.000000
vn 0.000000 0.000000 1.000000
vn 0.000000 0.000000 1.000000
vn 0.024114 -0.999709 0.000000
vn 0.024114 -0.999709 0.000000
vn 0.024114 -0.999709 0.000000
vn 0.024114 -0.999709 0.000000
vn 0.094957 0.002290 -0.995479
vn 0.116549 0.002811 -0.993181
vn -0.118090 -0.002848 -0.992999
vn -0.095260 -0.002298 -0.995450
vn -0.198432 0.980115 0.000000
vn -0.220214 0.975452 0.000000
vn 0.170118 0.985424 0.000000
vn 0.149350 0.988784 0.000000
vn 0.000000 0.000000 1.000000
vn 0.000000 0.000000 1.000000
vn 0.000000 0.000000 1.000000
vn 0.000000 0.000000 1.000000
vn 0.024115 -0.999709 0.000000
vn 0.024114 -0.999709 0.000000
vn 0.024114 -0.999709 0.000000
vn 0.024114 -0.999709 0.000000
vn -0.095260 -0.002298 -0.995450
vn -0.118090 -0.002848 -0.992999
vn -0.308664 -0.007446 -0.951142
vn -0.308664 -0.007446 -0.951142
vn -0.460608 0.887604 0.000000
vn -0.460608 0.887604 0.000000
vn -0.220214 0.975452 0.000000
vn -0.198432 0.980115 0.000000
vn 0.000000 0.000001 1.000000
vn 0.000000 0.000000 1.000000
vn 0.000000 0.000000 1.000000
vn 0.000000 0.000001 1.000000
vn 0.000000 0.000000 1.000000
vn 0.000000 0.000000 1.000000
vn 0.000000 0.000000 1.000000
vn 0.000000 0.000000 1.000000
vn 0.000000 0.000000 1.000000
vn -0.000000 -0.000001 1.000000
vn -0.000000 -0.000001 1.000000
vn 0.000000 0.000000 1.000000
vn 0.000000 0.000000 1.000000
vn 0.000000 0.000001 1.000000
vn 0.000000 0.000001 1.000000
vn 0.000000 0.000000 1.000000
vn -0.000000 -0.000001 1.000000
vn 0.000001 -0.000001 1.000000
vn 0.000001 -0.000001 1.000000
vn -0.000000 -0.000001 1.000000
vn 0.000000 0.000000 1.000000
vn -0.000000 -0.000001 1.000000
vn -0.000000 -0.000001 1.000000
vn 0.000000 0.000000 1.000000
vn -0.000000 -0.000001 1.000000
vn 0.000000 0.000000 1.000000
vn 0.000000 0.000000 1.000000
vn -0.000000 -0.000001 1.000000
vn 0.000001 -0.000001 1.000000
vn 0.000000 0.000000 1.000000
vn 0.000000 0.000000 1.000000
vn 0.000001 -0.000001 1.000000
vn -0.020609 0.999788 0.000000
vn -0.015750 0.999876 0.000000
vn -0.015750 0.999876 0.000000
vn -0.020609 0.999788 0.000000
vn -0.999709 -0.024114 0.000000
vn -0.999709 -0.024114 0.000000
vn -0.999709 -0.024114 0.000000
vn -0.999709 -0.024114 0.000000
vn -0.374159 -0.927365 0.000000
vn -0.152641 -0.988282 0.000000
vn -0.152641 -0.988282 0.000000
vn -0.374159 -0.927365 0.000000
vn -0.027567 0.999620 0.000000
vn -0.020609 0.999788 0.000000
vn -0.020609 0.999788 0.000000
vn -0.027567 0.999620 0.000000
vn -0.152641 -0.988282 0.000000
vn 0.202393 -0.979305 0.000000
vn 0.202393 -0.979305 0.000000
vn -0.152641 -0.988282 0.000000
vn 0.999709 0.024114 0.000000
vn 0.999709 0.024114 0.000000
vn 0.999709 0.024114 0.000000
vn 0.999709 0.024114 0.000000
vn -0.032681 0.999466 0.000000
vn -0.027567 0.999620 0.000000
vn -0.027567 0.999620 0.000000
vn -0.032681 0.999466 0.000000
vn 0.202393 -0.979305 0.000000
vn 0.429630 -0.903005 0.000000
vn 0.429630 -0.903005 0.000000
vn 0.202393 -0.979305 0.000000
s off
g pCube6 polySurface15 polySurface21 polySurface1
usemtl lambert2SG
f 25/1/1 26/2/2 27/3/3 28/4/4
f 3/5/5 4/6/6 6/7/7 5/8/8
f 5/9/9 6/10/10 11/11/11 12/12/12
f 7/13/13 8/14/14 2/15/15 1/16/16
f 10/17/17 11/18/18 6/19/19 4/20/20
f 12/21/21 9/22/22 3/5/23 5/8/24
f 29/23/25 30/24/26 26/2/27 25/1/28
f 14/25/29 15/26/30 11/18/31 10/17/32
f 12/12/33 11/11/34 15/27/35 16/28/36
f 16/29/37 13/30/38 9/22/39 12/21/40
f 31/31/41 32/32/42 30/24/43 29/23/44
f 2/15/45 8/14/46 15/26/47 14/25/48
f 16/28/49 15/27/50 8/33/51 7/34/52
f 7/35/53 1/36/54 13/30/55 16/29/56
f 10/37/57 4/38/58 19/39/59 18/40/60
f 4/38/61 3/41/62 20/42/63 19/39/64
f 3/41/65 9/43/66 17/44/67 20/42/68
f 14/45/69 10/37/70 18/40/71 22/46/72
f 9/43/73 13/47/74 21/48/75 17/44/76
f 1/49/77 2/50/78 24/51/79 23/52/80
f 2/50/81 14/45/82 22/46/83 24/51/84
f 13/47/85 1/49/86 23/52/87 21/48/88
f 18/53/89 19/54/90 27/55/91 26/56/92
f 19/54/93 20/57/94 28/58/95 27/55/96
f 20/57/97 17/59/98 25/60/99 28/58/100
f 22/61/101 18/53/102 26/56/103 30/62/104
f 17/59/105 21/63/106 29/64/107 25/60/108
f 23/65/109 24/66/110 32/67/111 31/68/112
f 24/66/113 22/61/114 30/62/115 32/67/116
f 21/63/117 23/69/118 31/70/119 29/64/120
