# This file uses centimeters as units for non-parametric coordinates.

mtllib AvoPip.mtl
g default
v 0.984919 -9.660713 -0.174698
v -0.758199 -9.776245 -1.370322
v -2.874357 -9.787285 -1.316320
v -4.555295 -9.689644 -0.033318
v -5.158933 -9.520622 1.988603
v -4.454740 -9.344772 3.977162
v -2.711660 -9.229256 5.172781
v -0.595502 -9.218216 5.118783
v 1.085444 -9.315842 3.835793
v 1.689089 -9.484871 1.813858
v 3.426852 -8.234673 -2.182014
v 0.111354 -8.454376 -4.456226
v -3.913839 -8.475388 -4.353517
v -7.111150 -8.289680 -1.913116
v -8.259405 -7.968178 1.932838
v -6.919950 -7.633675 5.715287
v -3.604436 -7.413956 7.989493
v 0.420756 -7.392944 7.886775
v 3.618083 -7.578659 5.446377
v 4.766337 -7.900169 1.600430
v 5.355921 -5.904648 -3.877866
v 0.792491 -6.207069 -7.008039
v -4.747693 -6.235977 -6.866673
v -9.148443 -5.980362 -3.507744
v -10.728826 -5.537857 1.785751
v -8.885221 -5.077454 6.991850
v -4.321813 -4.775055 10.122033
v 1.218386 -4.746132 9.980650
v 5.619181 -5.001732 6.621730
v 7.199565 -5.444267 1.328245
v 6.583308 -2.898758 -5.096230
v 1.218653 -3.254272 -8.775972
v -5.294233 -3.288269 -8.609769
v -10.467641 -2.987778 -4.661119
v -12.325521 -2.467560 1.561741
v -10.158201 -1.926331 7.681889
v -4.793569 -1.570839 11.361628
v 1.719340 -1.536827 11.195430
v 6.892726 -1.837326 7.246775
v 8.750567 -2.357536 1.023924
v 6.988780 0.488754 -5.717852
v 1.348040 0.114967 -9.586966
v -5.499982 0.079216 -9.412210
v -10.939611 0.395172 -5.260353
v -12.893071 0.942154 1.282751
v -10.614248 1.511230 7.717846
v -4.973531 1.885033 11.586965
v 1.874507 1.920776 11.412216
v 7.314120 1.604813 7.260353
v 9.267596 1.057831 0.717258
v 6.532710 3.926331 -5.681891
v 1.168086 3.570839 -9.361626
v -5.344831 3.536819 -9.195432
v -10.518201 3.837326 -5.246775
v -12.376043 4.357536 0.976084
v -10.208791 4.898750 7.096231
v -4.844144 5.254265 10.775975
v 1.668742 5.288254 10.609769
v 6.842158 4.987762 6.661119
v 8.700030 4.467552 0.438268
v 5.259745 7.077454 -4.991847
v 0.696330 6.775047 -8.122023
v -4.843877 6.746117 -7.980645
v -9.244665 7.001717 -4.621715
v -10.825040 7.444252 0.671764
v -8.981412 7.904640 5.877874
v -4.417981 8.207054 9.008043
v 1.122203 8.235977 8.866675
v 5.522967 7.980354 5.507744
v 7.103343 7.537849 0.214263
v 3.294474 9.633667 -3.715284
v -0.021039 9.413956 -5.989490
v -4.046232 9.392944 -5.886779
v -7.243566 9.578659 -3.446370
v -8.391813 9.900169 0.399572
v -7.052327 10.234673 4.182017
v -3.736829 10.454369 6.456226
v 0.288356 10.475380 6.353513
v 3.485675 10.289673 3.913119
v 4.633929 9.968170 0.067169
v 0.829249 11.344765 -1.977158
v -0.913816 11.229248 -3.172777
v -3.029973 11.218208 -3.118782
v -4.710920 11.315842 -1.835794
v -5.314580 11.484863 0.186154
v -4.610395 11.660713 2.174700
v -2.867292 11.776237 3.370323
v -0.751119 11.787285 3.316319
v 0.929820 11.689636 2.033320
v 1.533457 11.520622 0.011402
v -1.730924 -10.043228 1.947610
v -1.894552 12.043221 0.052396
v -3.940198 7.292938 7.323220
v -3.303335 7.296257 7.306968
v -3.953039 7.786766 6.920921
v -3.316182 7.790100 6.904668
v -3.901998 8.757225 9.119369
v -3.265142 8.760544 9.103117
v -3.277959 9.254372 8.700815
v -3.914800 9.251053 8.717065
v -3.239087 4.827164 9.318495
v -0.691640 4.840454 9.253484
v -3.888830 5.317657 8.932444
v -3.251943 5.320976 8.916188
v -0.704496 5.334267 8.851178
v -0.067609 5.337585 8.834929
v -3.901662 5.811478 8.530135
v -3.264737 5.814812 8.513882
v -0.717321 5.828102 8.448879
v -0.080480 5.831421 8.432627
v -3.200956 6.291435 11.114640
v -3.213750 6.785255 10.712337
v -0.653463 6.304726 11.049637
v -0.666295 6.798561 10.647326
v -3.850637 6.781914 10.728587
v -3.213750 6.785240 10.712337
v -3.226575 7.279083 10.310030
v -3.863477 7.275757 10.326285
v -0.666303 6.798546 10.647332
v -0.029401 6.801872 10.631081
v -0.042272 7.295685 10.228773
v -0.679159 7.292366 10.245030
v -0.755880 7.309555 7.241957
v -0.119008 7.312881 7.225711
v -0.768705 7.803398 6.839653
v -0.131818 7.806717 6.823405
v -0.717672 8.773834 9.038114
v -0.080785 8.777168 9.021858
v -0.093656 9.270996 8.619552
v -0.730512 9.267670 8.635802
vt 0.764939 0.666530
vt 0.803280 0.674215
vt 0.831237 0.622660
vt 0.757232 0.607868
vt 0.829769 0.703015
vt 0.882363 0.678257
vt 0.834263 0.741895
vt 0.890984 0.753292
vt 0.815070 0.775968
vt 0.853902 0.818971
vt 0.779563 0.792232
vt 0.785435 0.850255
vt 0.741305 0.784518
vt 0.711738 0.835356
vt 0.714869 0.755788
vt 0.660807 0.780019
vt 0.710324 0.716980
vt 0.651999 0.705251
vt 0.729434 0.682882
vt 0.688771 0.639477
vt 0.854195 0.578896
vt 0.750021 0.558122
vt 0.926161 0.657169
vt 0.938235 0.762783
vt 0.885992 0.855134
vt 0.789693 0.899042
vt 0.686127 0.878058
vt 0.614549 0.800300
vt 0.602106 0.695213
vt 0.653734 0.602674
vt 0.869937 0.547032
vt 0.743925 0.521945
vt 0.956987 0.641722
vt 0.971540 0.769468
vt 0.908309 0.881089
vt 0.791896 0.934090
vt 0.666772 0.908696
vt 0.580288 0.814757
vt 0.565197 0.687783
vt 0.627529 0.575887
vt 0.876423 0.530962
vt 0.739586 0.503743
vt 0.970950 0.633792
vt 0.986727 0.772508
vt 0.918048 0.893672
vt 0.791676 0.951167
vt 0.655887 0.923586
vt 0.562026 0.821642
vt 0.545614 0.683834
vt 0.740391 0.500303
vt 0.879062 0.527812
vt 0.877291 0.532788
vt 0.740994 0.505755
vt 0.974620 0.631678
vt 0.971224 0.634869
vt 0.990684 0.771472
vt 0.987026 0.772275
vt 0.921867 0.893679
vt 0.919386 0.892407
vt 0.794800 0.952290
vt 0.794474 0.950028
vt 0.657490 0.925457
vt 0.659492 0.923647
vt 0.561710 0.823094
vt 0.565344 0.823019
vt 0.544149 0.683553
vt 0.548095 0.685857
vt 0.612262 0.560000
vt 0.615055 0.564424
vt 0.863930 0.558495
vt 0.744441 0.534817
vt 0.946340 0.647958
vt 0.960280 0.768474
vt 0.900981 0.873920
vt 0.791353 0.924520
vt 0.672875 0.901345
vt 0.590299 0.812999
vt 0.575247 0.692671
vt 0.634022 0.586224
vt 0.839504 0.603777
vt 0.750581 0.586187
vt 0.900915 0.670318
vt 0.911406 0.760082
vt 0.867277 0.838731
vt 0.785529 0.876502
vt 0.697168 0.859191
vt 0.635665 0.793270
vt 0.624557 0.703611
vt 0.668394 0.624406
vt 0.613234 0.562347
vt 0.772562 0.729493
vt 0.768216 0.733006
vt 0.714964 0.675353
vt 0.691498 0.717613
vt 0.697358 0.765544
vt 0.730217 0.800851
vt 0.777511 0.810137
vt 0.821256 0.789895
vt 0.844804 0.747793
vt 0.839121 0.699833
vt 0.806288 0.664349
vt 0.758834 0.654983
vt 0.041647 0.051164
vt 0.170698 0.051164
vt 0.170698 0.180216
vt 0.041647 0.180216
vt 0.041647 0.051164
vt 0.170698 0.051164
vt 0.170698 0.180216
vt 0.041647 0.180216
vt 0.041647 0.051164
vt 0.170698 0.051164
vt 0.170698 0.180216
vt 0.041647 0.180216
vt 0.041647 0.051164
vt 0.170698 0.051164
vt 0.170698 0.180216
vt 0.041647 0.180216
vt 0.041647 0.051164
vt 0.170698 0.051164
vt 0.170698 0.180216
vt 0.041647 0.180216
vt 0.041647 0.051164
vt 0.170698 0.051164
vt 0.170698 0.180216
vt 0.041647 0.180216
vt 0.041647 0.051164
vt 0.170698 0.051164
vt 0.170698 0.180216
vt 0.041647 0.180216
vt 0.041647 0.051164
vt 0.170698 0.051164
vt 0.170698 0.180216
vt 0.041647 0.180216
vt 0.041647 0.051164
vt 0.170698 0.051164
vt 0.170698 0.180216
vt 0.041647 0.180216
vt 0.041647 0.051164
vt 0.170698 0.051164
vt 0.170698 0.180216
vt 0.041647 0.180216
vt 0.041647 0.051164
vt 0.170698 0.051164
vt 0.170698 0.180216
vt 0.041647 0.180216
vt 0.041647 0.051164
vt 0.170698 0.051164
vt 0.170698 0.180216
vt 0.041647 0.180216
vt 0.041647 0.051164
vt 0.170698 0.051164
vt 0.170698 0.180216
vt 0.041647 0.180216
vt 0.041647 0.051164
vt 0.170698 0.051164
vt 0.170698 0.180216
vt 0.041647 0.180216
vt 0.041647 0.051164
vt 0.170698 0.051164
vt 0.170698 0.180216
vt 0.041647 0.180216
vt 0.041647 0.051164
vt 0.170698 0.051164
vt 0.170698 0.180216
vt 0.041647 0.180216
vt 0.041647 0.051164
vt 0.170698 0.051164
vt 0.170698 0.180216
vt 0.041647 0.180216
vt 0.041647 0.051164
vt 0.170698 0.051164
vt 0.170698 0.180216
vt 0.041647 0.180216
vt 0.041647 0.051164
vt 0.170698 0.051164
vt 0.170698 0.180216
vt 0.041647 0.180216
vt 0.041647 0.051164
vt 0.170698 0.051164
vt 0.170698 0.180216
vt 0.041647 0.180216
vt 0.041647 0.051164
vt 0.170698 0.051164
vt 0.170698 0.180216
vt 0.041647 0.180216
vt 0.041647 0.051164
vt 0.170698 0.051164
vt 0.170698 0.180216
vt 0.041647 0.180216
vt 0.041647 0.051164
vt 0.170698 0.051164
vt 0.170698 0.180216
vt 0.041647 0.180216
vt 0.041647 0.051164
vt 0.170698 0.051164
vt 0.170698 0.180216
vt 0.041647 0.180216
vt 0.041647 0.051164
vt 0.170698 0.051164
vt 0.170698 0.180216
vt 0.041647 0.180216
vn 0.295112 -0.945101 -0.140334
vn 0.107952 -0.959956 -0.258516
vn 0.186432 -0.821297 -0.539180
vn 0.508941 -0.799924 -0.317963
vn 0.055432 -0.914541 -0.400677
vn 0.055432 -0.914541 -0.400677
vn -0.234774 -0.883764 -0.404774
vn -0.234774 -0.883764 -0.404774
vn -0.471008 -0.849757 -0.236781
vn -0.471008 -0.849757 -0.236781
vn -0.563037 -0.825505 0.039127
vn -0.563037 -0.825505 0.039127
vn -0.475704 -0.820277 0.317570
vn -0.475704 -0.820277 0.317570
vn -0.242373 -0.836066 0.492188
vn -0.242373 -0.836066 0.492188
vn 0.047833 -0.866843 0.496282
vn 0.047833 -0.866843 0.496282
vn 0.284066 -0.900851 0.328290
vn 0.284066 -0.900851 0.328290
vn 0.513427 -0.768766 -0.381304
vn 0.513427 -0.768766 -0.381304
vn 0.155400 -0.744537 -0.649242
vn -0.289895 -0.697315 -0.655525
vn -0.652376 -0.645132 -0.397757
vn -0.793583 -0.607923 0.025607
vn -0.659583 -0.599899 0.452848
vn -0.301557 -0.624126 0.720784
vn 0.143739 -0.671349 0.727069
vn 0.506220 -0.723531 0.469302
vn 0.682143 -0.537889 -0.495334
vn 0.682143 -0.537889 -0.495334
vn 0.237508 -0.507803 -0.828086
vn -0.315510 -0.449156 -0.835890
vn -0.765676 -0.384352 -0.515766
vn -0.941043 -0.338140 0.010009
vn -0.774626 -0.328178 0.540605
vn -0.329991 -0.358264 0.873357
vn 0.223025 -0.416909 0.881162
vn 0.673192 -0.481714 0.561038
vn 0.784574 -0.263131 -0.561431
vn 0.784574 -0.263131 -0.561431
vn 0.295998 -0.230070 -0.927067
vn -0.311674 -0.165626 -0.935643
vn -0.806331 -0.094415 -0.583880
vn -0.999028 -0.043640 -0.006144
vn -0.816166 -0.032689 0.576893
vn -0.327587 -0.065751 0.942531
vn 0.280085 -0.130195 0.951106
vn 0.774740 -0.201404 0.599345
vn 0.816165 0.032690 -0.576894
vn 0.816165 0.032690 -0.576893
vn 0.327587 0.065751 -0.942530
vn -0.280085 0.130193 -0.951106
vn -0.774740 0.201402 -0.599345
vn -0.967438 0.252183 -0.021606
vn -0.784576 0.263132 0.561429
vn -0.295996 0.230070 0.927068
vn 0.311674 0.165626 0.935643
vn 0.806331 0.094419 0.583880
vn 0.774625 0.328179 -0.540607
vn 0.774625 0.328179 -0.540607
vn 0.329991 0.358264 -0.873357
vn -0.223025 0.416911 -0.881161
vn -0.673191 0.481718 -0.561037
vn -0.848559 0.527925 -0.035262
vn -0.682142 0.537890 0.495335
vn -0.237508 0.507804 0.828085
vn 0.315509 0.449153 0.835892
vn 0.765677 0.384349 0.515767
vn 0.659584 0.599898 -0.452849
vn 0.659584 0.599898 -0.452849
vn 0.301557 0.624124 -0.720786
vn -0.143741 0.671348 -0.727070
vn -0.506222 0.723529 -0.469303
vn -0.647430 0.760739 -0.045939
vn -0.513428 0.768763 0.381308
vn -0.155402 0.744538 0.649241
vn 0.289897 0.697316 0.655523
vn 0.652374 0.645133 0.397757
vn 0.475703 0.820279 -0.317567
vn 0.475703 0.820279 -0.317567
vn 0.242374 0.836068 -0.492185
vn -0.047832 0.866844 -0.496279
vn -0.284066 0.900852 -0.328286
vn -0.376092 0.925101 -0.052384
vn -0.288761 0.930330 0.226061
vn -0.055434 0.914539 0.400681
vn 0.234776 0.883763 0.404775
vn 0.471008 0.849755 0.236786
vn -0.103411 -0.989087 -0.104942
vn 0.197233 0.964365 -0.176351
vn -0.200862 0.627797 0.752014
vn -0.200862 0.627797 0.752014
vn -0.200862 0.627797 0.752014
vn -0.200862 0.627797 0.752014
vn -0.265171 -0.773847 0.575192
vn -0.265171 -0.773846 0.575192
vn 0.943042 -0.083880 0.321924
vn 0.265173 0.773840 -0.575200
vn -0.200863 0.627795 0.752016
vn -0.200863 0.627795 0.752016
vn -0.200863 0.627795 0.752016
vn -0.200863 0.627795 0.752016
vn -0.200866 0.627797 0.752013
vn -0.200866 0.627797 0.752013
vn -0.200866 0.627797 0.752013
vn -0.200866 0.627797 0.752013
vn -0.200864 0.627804 0.752008
vn -0.200864 0.627804 0.752008
vn -0.200864 0.627804 0.752008
vn -0.200864 0.627804 0.752008
vn -0.265176 -0.773844 0.575193
vn -0.265176 -0.773844 0.575193
vn -0.943044 0.083891 -0.321916
vn 0.943045 -0.083880 0.321917
vn -0.265173 -0.773842 0.575197
vn -0.265173 -0.773842 0.575197
vn 0.943045 -0.083881 0.321915
vn 0.265176 0.773838 -0.575201
vn -0.265171 -0.773845 0.575194
vn -0.265171 -0.773845 0.575194
vn 0.943046 -0.083870 0.321915
vn 0.265173 0.773842 -0.575197
vn -0.200864 0.627790 0.752019
vn -0.200864 0.627790 0.752019
vn -0.200864 0.627790 0.752019
vn -0.200864 0.627790 0.752019
vn -0.265173 -0.773841 0.575198
vn -0.265173 -0.773841 0.575198
vn 0.943045 -0.083881 0.321915
vn 0.265172 0.773839 -0.575202
s 1
g polySurface1
usemtl lambert2SG
f 1/1/1 2/2/2 12/3/3 11/4/4
f 2/2/2 3/5/5 13/6/6 12/3/3
f 3/5/5 4/7/7 14/8/8 13/6/6
f 4/7/7 5/9/9 15/10/10 14/8/8
f 5/9/9 6/11/11 16/12/12 15/10/10
f 6/11/11 7/13/13 17/14/14 16/12/12
f 7/13/13 8/15/15 18/16/16 17/14/14
f 8/15/15 9/17/17 19/18/18 18/16/16
f 9/17/17 10/19/19 20/20/20 19/18/18
f 10/19/19 1/1/1 11/4/4 20/20/20
f 11/4/4 12/3/3 22/21/21 21/22/22
f 12/3/3 13/6/6 23/23/23 22/21/21
f 13/6/6 14/8/8 24/24/24 23/23/23
f 14/8/8 15/10/10 25/25/25 24/24/24
f 15/10/10 16/12/12 26/26/26 25/25/25
f 16/12/12 17/14/14 27/27/27 26/26/26
f 17/14/14 18/16/16 28/28/28 27/27/27
f 18/16/16 19/18/18 29/29/29 28/28/28
f 19/18/18 20/20/20 30/30/30 29/29/29
f 20/20/20 11/4/4 21/22/22 30/30/30
f 21/22/22 22/21/21 32/31/31 31/32/32
f 22/21/21 23/23/23 33/33/33 32/31/31
f 23/23/23 24/24/24 34/34/34 33/33/33
f 24/24/24 25/25/25 35/35/35 34/34/34
f 25/25/25 26/26/26 36/36/36 35/35/35
f 26/26/26 27/27/27 37/37/37 36/36/36
f 27/27/27 28/28/28 38/38/38 37/37/37
f 28/28/28 29/29/29 39/39/39 38/38/38
f 29/29/29 30/30/30 40/40/40 39/39/39
f 30/30/30 21/22/22 31/32/32 40/40/40
f 31/32/32 32/31/31 42/41/41 41/42/42
f 32/31/31 33/33/33 43/43/43 42/41/41
f 33/33/33 34/34/34 44/44/44 43/43/43
f 34/34/34 35/35/35 45/45/45 44/44/44
f 35/35/35 36/36/36 46/46/46 45/45/45
f 36/36/36 37/37/37 47/47/47 46/46/46
f 37/37/37 38/38/38 48/48/48 47/47/47
f 38/38/38 39/39/39 49/49/49 48/48/48
f 39/39/39 40/40/40 50/90/50 49/49/49
f 40/40/40 31/32/32 41/42/42 50/90/50
f 41/50/42 42/51/41 52/52/51 51/53/52
f 42/51/41 43/54/43 53/55/53 52/52/51
f 43/54/43 44/56/44 54/57/54 53/55/53
f 44/56/44 45/58/45 55/59/55 54/57/54
f 45/58/45 46/60/46 56/61/56 55/59/55
f 46/60/46 47/62/47 57/63/57 56/61/56
f 47/62/47 48/64/48 58/65/58 57/63/57
f 48/64/48 49/66/49 59/67/59 58/65/58
f 49/66/49 50/68/50 60/69/60 59/67/59
f 50/68/50 41/50/42 51/53/52 60/69/60
f 51/53/52 52/52/51 62/70/61 61/71/62
f 52/52/51 53/55/53 63/72/63 62/70/61
f 53/55/53 54/57/54 64/73/64 63/72/63
f 54/57/54 55/59/55 65/74/65 64/73/64
f 55/59/55 56/61/56 66/75/66 65/74/65
f 56/61/56 57/63/57 67/76/67 66/75/66
f 57/63/57 58/65/58 68/77/68 67/76/67
f 58/65/58 59/67/59 69/78/69 68/77/68
f 59/67/59 60/69/60 70/79/70 69/78/69
f 60/69/60 51/53/52 61/71/62 70/79/70
f 61/71/62 62/70/61 72/80/71 71/81/72
f 62/70/61 63/72/63 73/82/73 72/80/71
f 63/72/63 64/73/64 74/83/74 73/82/73
f 64/73/64 65/74/65 75/84/75 74/83/74
f 65/74/65 66/75/66 76/85/76 75/84/75
f 66/75/66 67/76/67 77/86/77 76/85/76
f 67/76/67 68/77/68 78/87/78 77/86/77
f 68/77/68 69/78/69 79/88/79 78/87/78
f 69/78/69 70/79/70 80/89/80 79/88/79
f 70/79/70 61/71/62 71/81/72 80/89/80
f 71/81/72 72/80/71 82/101/81 81/102/82
f 72/80/71 73/82/73 83/100/83 82/101/81
f 73/82/73 74/83/74 84/99/84 83/100/83
f 74/83/74 75/84/75 85/98/85 84/99/84
f 75/84/75 76/85/76 86/97/86 85/98/85
f 76/85/76 77/86/77 87/96/87 86/97/86
f 77/86/77 78/87/78 88/95/88 87/96/87
f 78/87/78 79/88/79 89/94/89 88/95/88
f 79/88/79 80/89/80 90/93/90 89/94/89
f 80/89/80 71/81/72 81/102/82 90/93/90
f 3/5/5 2/2/2 91/91/91 4/7/7
f 5/9/9 4/7/7 91/91/91 6/11/11
f 7/13/13 6/11/11 91/91/91 8/15/15
f 9/17/17 8/15/15 91/91/91 10/19/19
f 1/1/1 10/19/19 91/91/91 2/2/2
f 92/92/92 81/102/82 82/101/81 83/100/83
f 92/92/92 83/100/83 84/99/84 85/98/85
f 92/92/92 85/98/85 86/97/86 87/96/87
f 92/92/92 87/96/87 88/95/88 89/94/89
f 92/92/92 89/94/89 90/93/90 81/102/82
s 2
f 97/103/93 98/104/94 99/105/95 100/106/96
f 93/107/97 94/108/98 98/109/94 97/110/93
f 94/111/98 96/112/99 99/113/95 98/114/94
f 96/115/99 95/116/100 100/117/96 99/118/95
f 95/119/100 93/120/97 97/121/93 100/122/96
s 3
f 112/123/101 111/124/102 113/125/103 114/126/104
s 4
f 115/127/105 116/128/106 117/129/107 118/130/108
s 5
f 119/131/109 120/132/110 121/133/111 122/134/112
s 3
f 111/135/102 101/136/113 102/137/114 113/138/103
f 104/139/115 101/140/113 111/141/102 112/142/101
f 102/143/114 105/144/116 114/145/104 113/146/103
f 112/147/101 114/148/104 105/149/116 104/150/115
s 4
f 103/151/117 104/152/118 116/153/106 115/154/105
f 104/155/118 108/156/119 117/157/107 116/158/106
f 108/159/119 107/160/120 118/161/108 117/162/107
f 107/163/120 103/164/117 115/165/105 118/166/108
s 5
f 105/167/121 106/168/122 120/169/110 119/170/109
f 106/171/122 110/172/123 121/173/111 120/174/110
f 110/175/123 109/176/124 122/177/112 121/178/111
f 109/179/124 105/180/121 119/181/109 122/182/112
s 6
f 127/183/125 128/184/126 129/185/127 130/186/128
f 123/187/129 124/188/130 128/189/126 127/190/125
f 124/191/130 126/192/131 129/193/127 128/194/126
f 126/195/131 125/196/132 130/197/128 129/198/127
f 125/199/132 123/200/129 127/201/125 130/202/128
