# This file uses centimeters as units for non-parametric coordinates.

mtllib Fry2.mtl
g default1
v -1.872116 1.783928 39.553191
v -1.783928 -1.872119 39.553191
v 1.783928 1.872119 42.413142
v 1.872116 -1.783928 42.413142
v 1.783928 1.872119 -0.076133
v 1.872116 -1.783928 -0.076133
v -1.872116 1.783928 -0.076133
v -1.783928 -1.872119 -0.076133
vt 0.322547 0.921325
vt 0.322547 0.973211
vt 0.247973 0.973211
vt 0.247973 0.921325
vt 0.173675 0.921325
vt 0.173675 0.088125
vt 0.247973 0.088125
vt 0.247973 0.013709
vt 0.322547 0.013709
vt 0.322547 0.088125
vt 0.024842 0.088125
vt 0.099258 0.088125
vt 0.099258 0.921325
vt 0.024842 0.921325
vn -0.615844 -0.014854 0.787728
vn -0.615844 -0.014854 0.787728
vn -0.615844 -0.014854 0.787728
vn -0.615844 -0.014854 0.787728
vn 0.999709 0.024114 0.000000
vn 0.999709 0.024114 0.000000
vn 0.999709 0.024114 0.000000
vn 0.999709 0.024114 0.000000
vn 0.000000 0.000000 -1.000000
vn 0.000000 0.000000 -1.000000
vn 0.000000 0.000000 -1.000000
vn 0.000000 0.000000 -1.000000
vn -0.999709 -0.024114 0.000000
vn -0.999709 -0.024114 0.000000
vn -0.999709 -0.024114 0.000000
vn -0.999709 -0.024114 0.000000
vn 0.024114 -0.999709 0.000000
vn 0.024114 -0.999709 0.000000
vn 0.024114 -0.999709 0.000000
vn 0.024114 -0.999709 0.000000
vn -0.024114 0.999709 0.000000
vn -0.024114 0.999709 0.000000
vn -0.024114 0.999709 0.000000
vn -0.024114 0.999709 0.000000
s off
g pCube6 polySurface15 polySurface24 polySurface1
usemtl lambert2SG
f 1/1/1 2/2/2 4/3/3 3/4/4
f 3/4/5 4/5/6 6/6/7 5/7/8
f 5/7/9 6/8/10 8/9/11 7/10/12
f 7/11/13 8/12/14 2/13/15 1/14/16
f 2/13/17 8/12/18 6/6/19 4/5/20
f 7/10/21 1/1/22 3/4/23 5/7/24
