# This file uses centimeters as units for non-parametric coordinates.

mtllib RubishBin.mtl
g default
v 57.609684 -707.603870 -933.682570
v 8.718541 -707.603870 -427.410027
v 57.609684 318.405474 -933.682570
v 8.718541 318.405474 -427.410027
v 689.517978 318.405474 -872.658423
v 640.626698 318.405474 -366.386228
v 689.517978 -707.603870 -872.658423
v 640.626698 -707.603870 -366.386228
v 482.649734 75.057066 -381.641919
v 482.649734 237.891143 -381.641919
v 166.695584 237.891081 -412.153963
v 166.695584 75.057005 -412.153963
v 171.087138 75.056944 -512.432476
v 487.041253 75.057066 -481.920466
v 168.915876 75.056944 -432.425232
v 484.870198 75.057066 -401.913203
v 168.915876 -37.365779 -432.425232
v 484.870198 -37.365672 -401.913203
v 487.041253 -37.365702 -481.920466
v 171.087176 -37.365779 -512.432472
v 649.804816 318.405474 -846.685150
v 606.617682 318.405474 -399.478117
v 91.619084 318.405474 -900.589943
v 48.431799 318.405474 -453.383107
v 689.517978 396.552499 -872.658423
v 640.626698 396.552499 -366.386228
v 649.804816 396.552499 -846.685150
v 606.617682 396.552499 -399.478117
v 57.609684 396.552499 -933.682570
v 91.619084 396.552499 -900.589943
v 8.718541 396.552499 -427.410027
v 48.431799 396.552499 -453.383107
vt 0.750441 0.959482
vt 0.220622 0.924375
vt 0.750441 0.538883
vt 0.541646 0.049770
vt 0.491661 0.959482
vt 0.537245 0.411997
vt 0.757636 0.348193
vt 0.971372 0.348193
vt 0.285320 0.538883
vt 0.285320 0.959482
vt 0.020413 0.959482
vt 0.491661 0.538883
vt 0.084894 0.412302
vt 0.080784 0.050454
vt 0.611613 0.041607
vt 0.604912 0.510684
vt 0.571083 0.483902
vt 0.576333 0.069592
vt 0.019825 0.511024
vt 0.053603 0.484231
vt 0.013568 0.042524
vt 0.048741 0.070371
vt 0.050068 0.026125
vt 0.572448 0.025322
vt 0.958439 0.538883
vt 0.088514 0.924840
vt 0.958439 0.959482
vt 0.750441 0.992158
vt 0.958439 0.992158
vt 0.285320 0.992158
vt 0.089417 0.856269
vt 0.491661 0.992158
vt 0.220871 0.856769
vt 0.020413 0.538883
vt 0.971372 0.522557
vt 0.757636 0.522557
vt 0.709801 0.266350
vt 0.709801 0.084467
vt 0.749663 0.084467
vt 0.749662 0.266350
vt 0.838076 0.088083
vt 0.838075 0.269963
vt 0.806471 0.286119
vt 0.804853 0.073236
vt 0.912893 0.084158
vt 0.912894 0.266055
vt 0.695222 0.266502
vt 0.695222 0.084607
vt 0.882931 0.040707
vt 0.872070 0.050434
vt 0.845477 0.020739
vt 0.887626 0.312401
vt 0.875810 0.303861
vt 0.852457 0.336174
vn 0.000000 1.000000 0.000000
vn 0.000000 1.000000 0.000000
vn 0.000000 1.000000 0.000000
vn 0.000000 1.000000 0.000000
vn -0.000000 -1.000000 0.000000
vn -0.000000 -1.000000 0.000000
vn -0.000000 -1.000000 0.000000
vn -0.000000 -1.000000 0.000000
vn -0.096124 0.000003 0.995369
vn -0.096124 0.000003 0.995369
vn -0.096124 0.000003 0.995369
vn -0.096124 0.000003 0.995369
vn -0.995369 0.000000 -0.096124
vn -0.995369 0.000000 -0.096124
vn -0.995369 0.000000 -0.096124
vn -0.995369 0.000000 -0.096124
vn -0.081858 -0.524214 0.847643
vn -0.081858 -0.524214 0.847643
vn -0.081858 -0.524214 0.847643
vn -0.081858 -0.524214 0.847643
vn 0.995369 0.000000 0.096124
vn 0.995369 0.000000 0.096124
vn 0.995369 0.000000 0.096124
vn 0.995369 0.000000 0.096124
vn 0.096124 0.000000 -0.995369
vn 0.096124 0.000000 -0.995369
vn 0.096124 0.000000 -0.995369
vn 0.096124 0.000000 -0.995369
vn -0.096124 -0.000000 0.995369
vn -0.096124 -0.000000 0.995369
vn -0.096124 -0.000000 0.995369
vn -0.096124 -0.000000 0.995369
vn -0.096122 0.000000 0.995369
vn -0.096122 0.000000 0.995369
vn -0.096122 0.000000 0.995369
vn -0.096122 0.000000 0.995369
vn -0.096124 0.000000 0.995369
vn -0.096124 0.000000 0.995369
vn -0.096124 0.000000 0.995369
vn -0.096124 0.000000 0.995369
vn -0.000000 1.000000 -0.000000
vn -0.000000 1.000000 -0.000000
vn -0.000000 1.000000 -0.000000
vn -0.000000 1.000000 -0.000000
vn -0.999009 -0.008176 -0.043750
vn -0.999009 -0.008176 -0.043750
vn -0.999009 -0.008176 -0.043750
vn -0.999009 -0.008176 -0.043750
vn 0.999009 0.008175 0.043750
vn 0.999009 0.008175 0.043750
vn 0.999009 0.008175 0.043750
vn 0.999009 0.008175 0.043750
vn -0.000000 1.000000 -0.000002
vn -0.000000 1.000000 -0.000002
vn -0.000000 1.000000 -0.000002
vn -0.000000 1.000000 -0.000002
vn 0.096124 0.000000 -0.995369
vn 0.096124 0.000000 -0.995369
vn 0.096124 0.000000 -0.995369
vn 0.096124 0.000000 -0.995369
vn -0.999632 0.000000 -0.027126
vn -0.999632 0.000000 -0.027126
vn -0.999632 0.000000 -0.027126
vn -0.999632 0.000000 -0.027126
vn -0.096124 0.000000 0.995369
vn -0.096124 0.000000 0.995369
vn -0.096124 0.000000 0.995369
vn -0.096124 0.000000 0.995369
vn 0.999632 0.000000 0.027129
vn 0.999632 0.000000 0.027129
vn 0.999632 0.000000 0.027129
vn 0.999632 0.000000 0.027129
vn 0.000001 1.000000 0.000000
vn 0.000000 1.000000 0.000000
vn 0.000000 1.000000 0.000000
vn 0.000001 1.000000 0.000000
vn -0.000001 1.000000 -0.000000
vn -0.000001 1.000000 -0.000000
vn -0.000001 1.000000 -0.000000
vn -0.000001 1.000000 -0.000000
vn 0.000000 1.000000 0.000000
vn 0.000000 1.000000 0.000000
vn 0.995369 0.000000 0.096124
vn 0.995369 0.000000 0.096124
vn -0.995369 0.000000 -0.096124
vn -0.995369 0.000000 -0.096124
vn -0.995369 0.000000 -0.096124
vn -0.995369 0.000000 -0.096124
vn -0.697377 0.000000 0.716704
vn -0.697377 0.000000 0.716704
vn -0.697377 0.000000 0.716704
vn -0.697377 0.000000 0.716704
vn 0.096124 0.000000 -0.995369
vn 0.096124 0.000000 -0.995369
vn -0.096124 0.000000 0.995369
vn -0.096124 0.000000 0.995369
vn -0.096124 0.000000 0.995369
vn -0.096124 0.000000 0.995369
vn -0.995369 0.000000 -0.096124
vn -0.995369 0.000000 -0.096124
vn 0.547349 0.000000 0.836905
vn 0.547349 0.000000 0.836905
vn 0.547349 0.000000 0.836905
vn 0.547349 0.000000 0.836905
vn 0.995369 0.000000 0.096124
vn 0.995369 0.000000 0.096124
vn 0.995369 0.000000 0.096124
vn 0.995369 0.000000 0.096124
s 1
g pCube14
usemtl initialShadingGroup
f 22/4/1 21/6/2 23/13/3 24/14/4
s off
f 1/7/5 7/8/6 8/35/7 2/36/8
f 10/2/9 6/10/10 4/11/11 11/26/12
s 2
f 1/3/13 2/25/14 4/27/15 3/1/16
s off
f 13/42/17 14/41/18 10/45/19 11/46/20
s 3
f 5/5/21 6/10/22 8/9/23 7/12/24
s 4
f 3/1/25 5/5/26 7/12/27 1/3/28
s off
f 2/34/29 8/9/30 9/33/31 12/31/32
f 10/2/33 9/33/34 8/9/35 6/10/36
f 2/34/37 12/31/38 11/26/39 4/11/40
f 17/40/41 18/39/42 19/44/43 20/43/44
f 9/49/45 10/45/46 14/41/47 16/50/48
f 11/46/49 12/52/50 15/53/51 13/42/52
f 12/47/53 9/48/54 16/38/55 15/37/56
f 15/37/57 16/38/58 18/39/59 17/40/60
f 16/50/61 14/41/62 19/44/63 18/51/64
f 14/41/65 13/42/66 20/43/67 19/44/68
f 13/42/69 15/53/70 17/54/71 20/43/72
s 5
f 26/15/73 25/16/74 27/17/75 28/18/76
f 25/16/74 29/19/77 30/20/78 27/17/75
f 29/19/77 31/21/79 32/22/80 30/20/78
s 1
f 4/23/81 6/24/82 22/4/1 24/14/4
s 3
f 6/10/22 5/5/21 25/32/83 26/30/84
s off
f 21/6/85 22/4/86 28/18/87 27/17/88
f 22/4/89 6/24/90 26/15/91 28/18/92
s 4
f 5/5/26 3/1/25 29/28/93 25/32/94
s off
f 23/13/95 21/6/96 27/17/97 30/20/98
s 2
f 3/1/16 4/27/15 31/29/99 29/28/100
s off
f 4/23/101 24/14/102 32/22/103 31/21/104
f 24/14/105 23/13/106 30/20/107 32/22/108
