# This file uses centimeters as units for non-parametric coordinates.

mtllib Tray.mtl
g default
v 187.229553 -1.269916 538.462585
v 422.008606 -1.269916 945.111877
v 496.028625 -1.269916 360.177307
v 730.807800 -1.269916 766.826721
v 196.717773 8.809675 542.448792
v 423.300659 8.809675 934.901733
v 721.319397 8.809675 762.840515
v 494.736633 8.809675 370.387482
v 172.872314 15.643004 532.430908
v 420.053558 15.642985 960.561401
v 423.300659 15.642985 934.901733
v 196.717773 15.643004 542.448792
v 745.164978 15.643004 772.858337
v 721.319397 15.643004 762.840515
v 497.983673 15.643004 344.727783
v 494.736633 15.643004 370.387482
vt 0.937638 0.246947
vt 0.564039 0.249872
vt 0.553836 0.207664
vt 0.947166 0.204585
vt 0.941257 0.709102
vt 0.951520 0.758693
vt 0.558170 0.761758
vt 0.567656 0.712027
vt 0.062608 0.751730
vt 0.059540 0.220050
vt 0.464070 0.217091
vt 0.467161 0.749906
vt 0.018262 0.812371
vt 0.014495 0.159582
vt 0.035303 0.186629
vt 0.038757 0.785078
vt 0.511227 0.155880
vt 0.490641 0.183294
vt 0.515023 0.810199
vt 0.494120 0.783028
vt 0.980182 0.281022
vt 0.983261 0.674352
vt 0.522569 0.668113
vt 0.519477 0.274784
vn 0.000000 1.000000 0.000000
vn 0.000000 1.000000 0.000000
vn 0.000000 1.000000 0.000000
vn 0.000000 1.000000 0.000000
vn 0.756628 -0.486504 -0.436839
vn 0.756628 -0.486504 -0.436839
vn 0.756628 -0.486504 -0.436839
vn 0.756628 -0.486504 -0.436839
vn 0.000000 -1.000000 0.000000
vn 0.000000 -1.000000 0.000000
vn 0.000000 -1.000000 0.000000
vn 0.000000 -1.000000 0.000000
vn -0.403210 -0.591345 -0.698379
vn -0.403210 -0.591345 -0.698379
vn -0.403210 -0.591345 -0.698379
vn -0.403210 -0.591345 -0.698379
vn 0.000000 1.000000 -0.000000
vn -0.000000 1.000000 0.000000
vn -0.000000 1.000000 0.000000
vn 0.000000 1.000000 -0.000000
vn -0.000000 1.000000 0.000000
vn -0.000000 1.000000 0.000000
vn 0.000000 1.000000 0.000000
vn 0.000000 1.000000 0.000000
vn -0.756628 -0.486504 0.436839
vn -0.756628 -0.486504 0.436839
vn -0.756628 -0.486504 0.436839
vn -0.756628 -0.486504 0.436839
vn 0.866025 0.000000 -0.500000
vn 0.866025 0.000000 -0.500000
vn 0.866025 0.000000 -0.500000
vn 0.866025 0.000000 -0.500000
vn 0.403210 -0.591343 0.698380
vn 0.403210 -0.591343 0.698380
vn 0.403210 -0.591343 0.698380
vn 0.403210 -0.591343 0.698380
vn -0.500000 0.000000 -0.866025
vn -0.500000 0.000000 -0.866025
vn -0.500000 0.000000 -0.866025
vn -0.500000 0.000000 -0.866025
vn -0.866026 0.000000 0.500000
vn -0.866026 0.000000 0.500000
vn -0.866026 0.000000 0.500000
vn -0.866026 0.000000 0.500000
vn 0.500000 0.000000 0.866025
vn 0.500000 0.000000 0.866025
vn 0.500000 0.000000 0.866025
vn 0.500000 0.000000 0.866025
s off
g pCube17
usemtl initialShadingGroup
f 5/9/1 6/10/2 7/11/3 8/12/4
f 4/5/5 3/1/6 15/21/7 13/22/8
f 3/1/9 4/5/10 2/8/11 1/2/12
f 3/1/13 1/2/14 9/3/15 15/4/16
s 1
f 9/13/17 10/14/18 11/15/19 12/16/20
f 10/14/18 13/17/21 14/18/22 11/15/19
f 13/17/21 15/19/23 16/20/24 14/18/22
f 15/19/23 9/13/17 12/16/20 16/20/24
s off
f 2/8/25 10/23/26 9/24/27 1/2/28
f 6/10/29 5/9/30 12/16/31 11/15/32
f 4/5/33 13/6/34 10/7/35 2/8/36
f 7/11/37 6/10/38 11/15/39 14/18/40
f 8/12/41 7/11/42 14/18/43 16/20/44
f 5/9/45 8/12/46 16/20/47 12/16/48
