# This file uses centimeters as units for non-parametric coordinates.

mtllib PaperBagJump.mtl
g default
v 127.430206 -53.891857 150.632706
v 152.912140 78.010117 150.632706
v -157.747803 -53.891857 150.632706
v 76.295349 -11.010609 103.116318
v 127.430206 -53.891857 38.528366
v 152.912140 78.010117 38.528366
v 82.970917 -28.465687 150.632706
v 86.345001 -28.465687 38.528366
v 127.430206 -53.891857 -73.576004
v 152.912140 78.010117 -73.576004
v -157.747803 -53.891857 -73.576004
v 76.295349 -11.010609 -26.059616
v 82.970917 -28.465687 -73.576004
v -157.747803 -53.891857 -1.848709
v -124.331146 -41.265541 38.528366
v -157.747803 -53.891857 81.820938
v -134.781555 -41.807693 14.947861
v -132.221375 -41.859280 64.180557
v -124.331146 -51.070953 38.528366
v -135.858643 -51.039379 16.319016
v -134.858948 -51.214584 61.433517
vt 0.239911 0.512226
vt 0.155871 0.540454
vt 0.113780 0.455402
vt 0.348169 0.303081
vt 0.341573 0.970188
vt 0.975987 0.071237
vt 0.908962 0.066042
vt 0.910157 0.018651
vt 0.977270 0.020343
vt 0.586220 0.310205
vt 0.586220 0.902489
vt 0.536147 0.924681
vt 0.348169 0.026552
vt 0.586220 0.026552
vt 0.239910 0.512226
vt 0.113780 0.455402
vt 0.155871 0.540453
vt 0.348168 0.303080
vt 0.341572 0.970188
vt 0.846240 0.067966
vt 0.847523 0.017072
vt 0.536147 0.924681
vt 0.500480 0.973449
vt 0.348168 0.026552
vt 0.500480 0.973449
vt 0.834572 0.345904
vt 0.876882 0.321706
vt 0.902835 0.309055
vt 0.928950 0.321865
vt 0.855289 0.346426
vt 0.973970 0.349418
vt 0.951801 0.348859
vt 0.056807 0.302860
vt 0.054487 0.202619
vt 0.092803 0.202619
vt 0.093365 0.292125
vt 0.056605 0.110474
vt 0.092680 0.115832
vt 0.103827 0.044838
vt 0.103827 0.371793
vt 0.586220 0.026552
vt 0.586220 0.310206
vt 0.586220 0.902489
vn 0.481721 0.842320 0.241748
vn 0.481721 0.842320 0.241748
vn 0.481721 0.842320 0.241748
vn -0.620048 0.119786 0.775366
vn -0.620048 0.119786 0.775366
vn -0.620048 0.119786 0.775366
vn 0.263639 -0.620931 0.738200
vn 0.263639 -0.620931 0.738200
vn 0.263639 -0.620931 0.738200
vn -0.510972 -0.859563 -0.007690
vn -0.510972 -0.859563 -0.007690
vn -0.510972 -0.859563 -0.007690
vn -0.510972 -0.859563 -0.007690
vn -0.389139 0.921067 -0.014390
vn -0.387618 0.921812 0.003784
vn -0.387579 0.921826 0.004411
vn -0.390154 0.920734 -0.005340
vn 0.981846 -0.189681 0.000000
vn 0.981846 -0.189681 0.000000
vn 0.981846 -0.189681 0.000000
vn 0.981846 -0.189681 0.000000
vn -0.098189 0.929590 0.355278
vn -0.098189 0.929590 0.355278
vn -0.098189 0.929589 0.355278
vn 0.481721 0.842320 -0.241748
vn 0.481721 0.842320 -0.241748
vn 0.481721 0.842320 -0.241748
vn -0.620047 0.119786 -0.775366
vn -0.620047 0.119786 -0.775366
vn -0.620047 0.119786 -0.775366
vn 0.263639 -0.620931 -0.738200
vn 0.263639 -0.620931 -0.738200
vn 0.263639 -0.620931 -0.738200
vn -0.510972 -0.859563 0.007690
vn -0.510972 -0.859563 0.007690
vn -0.510972 -0.859563 0.007690
vn -0.510972 -0.859563 0.007690
vn -0.389210 0.921140 0.004096
vn -0.391743 0.919764 -0.023922
vn -0.465645 0.884972 0.000000
vn 0.981846 -0.189681 0.000000
vn 0.981846 -0.189681 0.000000
vn 0.981846 -0.189681 0.000000
vn 0.981846 -0.189681 0.000000
vn -0.098189 0.929590 -0.355278
vn -0.098189 0.929589 -0.355278
vn -0.098189 0.929590 -0.355278
vn -0.386812 0.921954 0.019423
vn -0.391743 0.919764 -0.023922
vn -0.389210 0.921140 0.004096
vn -0.386812 0.921954 0.019423
vn -0.389210 0.921140 0.004096
vn -0.387579 0.921826 0.004411
vn -0.387618 0.921812 0.003784
vn -0.389139 0.921067 -0.014390
vn -0.390154 0.920734 -0.005340
vn -0.391377 0.920145 0.012507
vn -0.391377 0.920145 0.012507
vn -0.390154 0.920734 -0.005340
vn -0.426382 0.904543 0.000000
vn 0.103241 -0.994656 0.001147
vn 0.103081 -0.994672 0.001154
vn 0.103458 -0.994634 0.000634
vn 0.103691 -0.994609 0.000438
vn 0.106684 -0.994273 -0.006225
vn 0.103691 -0.994609 0.000438
vn 0.103458 -0.994634 0.000634
vn 0.104153 -0.994561 -0.000343
vn 0.103241 -0.994656 0.001147
vn 0.103691 -0.994609 0.000438
vn 0.129222 -0.991616 0.000000
vn 0.103826 -0.994595 0.000305
vn 0.116176 -0.993229 0.000000
vn 0.104153 -0.994561 -0.000343
vn 0.103826 -0.994595 0.000305
vn 0.104153 -0.994561 -0.000343
vn 0.103458 -0.994634 0.000634
vn 0.103745 -0.994604 0.000307
vn -0.921203 0.176520 -0.346736
vn -0.921203 0.176520 -0.346736
vn -0.921203 0.176520 -0.346736
vn -0.921203 0.176520 -0.346736
vn -0.898863 0.081861 0.430517
vn -0.898863 0.081861 0.430517
vn -0.898863 0.081861 0.430517
vn -0.898863 0.081861 0.430517
vn -0.641784 0.185405 0.744136
vn -0.641784 0.185405 0.744136
vn -0.641784 0.185405 0.744136
vn -0.640240 0.377029 -0.669285
vn -0.640240 0.377029 -0.669285
vn -0.640240 0.377029 -0.669285
s off
g pCube9
usemtl lambert2SG
f 4/1/1 7/2/2 1/3/3
f 2/4/4 4/1/5 1/3/6
f 3/5/7 4/1/8 2/4/9
f 7/6/10 8/7/11 5/8/12 1/9/13
f 2/4/14 6/42/15 15/43/16 18/12/17
f 1/13/18 5/14/19 6/42/20 2/4/21
f 3/5/22 7/2/23 4/1/24
f 12/15/25 9/16/26 13/17/27
f 10/18/28 9/16/29 12/15/30
f 11/19/31 10/18/32 12/15/33
f 13/20/34 9/21/35 5/8/36 8/7/37
f 17/22/38 11/19/39 14/23/40
f 9/24/41 10/18/42 6/10/43 5/41/44
f 11/19/45 12/15/46 13/17/47
f 10/18/48 11/19/49 17/22/50
f 10/18/51 17/22/52 15/11/53 6/10/54
f 2/4/55 18/12/56 3/5/57
f 3/5/58 18/12/59 16/25/60
f 11/26/61 13/20/62 8/7/63 20/27/64
f 19/28/65 20/27/66 8/7/67 21/29/68
f 11/26/69 20/27/70 14/30/71
f 3/31/72 16/32/73 21/29/74
f 3/31/75 21/29/76 8/7/77 7/6/78
f 18/33/79 15/34/80 19/35/81 21/36/82
f 15/34/83 17/37/84 20/38/85 19/35/86
f 17/37/87 14/39/88 20/38/89
f 16/40/90 18/33/91 21/36/92
