# This file uses centimeters as units for non-parametric coordinates.

mtllib Soda.mtl
g default
v 17.207703 -40.666565 -12.564385
v 7.237793 -40.666565 -19.807919
v -5.085632 -40.666565 -19.807913
v -15.055511 -40.666565 -12.564383
v -18.863609 -40.666565 -0.844105
v -15.055511 -40.666565 10.876167
v -5.085632 -40.666565 18.119698
v 7.237793 -40.666565 18.119698
v 17.207642 -40.666565 10.876167
v 21.015823 -40.666565 -0.844105
v 19.213638 -0.787102 -14.021793
v 8.004028 -0.787102 -22.166052
v -5.851807 -0.787102 -22.166052
v -17.061440 -0.787102 -14.021791
v -21.343124 -0.787102 -0.844105
v -17.061440 -0.787102 12.333584
v -5.851807 -0.787102 20.477837
v 8.004028 -0.787102 20.477837
v 19.213638 -0.787102 12.333584
v 23.495331 -0.787102 -0.844105
v 1.076080 -40.666565 -0.844105
v 19.213638 4.733047 -14.021793
v 8.004028 4.733047 -22.166052
v -5.851807 4.733047 -22.166052
v -17.061440 4.733047 -14.021791
v -21.343124 4.733047 -0.844105
v -17.061440 4.733047 12.333576
v -5.851807 4.733047 20.477837
v 8.004028 4.733047 20.477837
v 19.213638 4.733047 12.333576
v 23.495331 4.733047 -0.844105
v 21.610428 -0.787102 -15.763182
v 21.610428 4.733047 -15.763182
v 8.919525 -0.787102 -24.983677
v 8.919525 4.733047 -24.983677
v -6.767303 -0.787102 -24.983677
v -6.767303 4.733047 -24.983677
v -19.458252 -0.787102 -15.763182
v -19.458252 4.733047 -15.763182
v -24.305740 -0.787102 -0.844105
v -24.305740 4.733047 -0.844105
v -19.458252 -0.787102 14.074970
v -19.458252 4.733047 14.074970
v -6.767303 -0.787102 23.295464
v -6.767303 4.733047 23.295464
v 8.919495 -0.787102 23.295464
v 8.919495 4.733047 23.295464
v 21.610428 -0.787102 14.074970
v 21.610428 4.733047 14.074970
v 26.457947 -0.787102 -0.844101
v 26.457947 4.733047 -0.844101
v 14.063904 14.144840 -10.280302
v 1.076080 14.144840 -0.844105
v 6.036987 14.144840 -16.112188
v -3.884796 14.144840 -16.112188
v -11.911713 14.144840 -10.280302
v -14.977699 14.144840 -0.844105
v -11.911713 14.144840 8.592079
v -3.884796 14.144840 14.423973
v 6.036987 14.144840 14.423973
v 14.063904 14.144840 8.592091
v 17.129883 14.144840 -0.844105
v 2.059540 7.221973 -3.252932
v -0.314331 7.630878 -4.250704
v -2.688202 8.039776 -3.252932
v -3.671494 8.209156 -0.844105
v -2.688202 8.039776 1.564720
v -0.314331 7.630878 2.562489
v 2.059540 7.221973 1.564720
v 3.042847 7.052593 -0.844105
v 17.050934 35.984425 -3.252932
v 16.607697 38.352131 -4.250704
v 16.164368 40.719807 -3.252932
v 15.980774 41.700535 -0.844105
v 16.164368 40.719807 1.564720
v 16.607697 38.352131 2.562489
v 17.050934 35.984425 1.564720
v 17.234543 35.003696 -0.844105
v 5.603165 28.515217 -3.252932
v 3.605988 30.390095 -4.250704
v 1.608795 32.265018 -3.252932
v 0.781509 33.041599 -0.844105
v 1.608795 32.265018 1.564720
v 3.605988 30.390095 2.562489
v 5.603165 28.515217 1.564720
v 6.430450 27.738590 -0.844105
v 8.141190 33.585857 -3.252932
v 6.951950 35.680637 -4.250704
v 5.762726 37.775387 -3.252932
v 5.270111 38.643085 -0.844105
v 5.762726 37.775387 1.564720
v 6.951950 35.680637 2.562489
v 8.141190 33.585857 1.564720
v 8.633820 32.718159 -0.844105
v 16.969147 36.421337 -2.808453
v 16.607697 38.352161 -3.622101
v 16.246170 40.282925 -2.808447
v 16.096451 41.082676 -0.844107
v 16.246170 40.282925 1.120237
v 16.607605 38.352131 1.933895
v 16.969147 36.421360 1.120243
v 17.118866 35.621555 -0.844107
v 6.346512 33.495571 -2.808374
v 5.985062 35.426220 -3.621927
v 5.623566 37.356983 -2.808357
v 5.473846 38.156849 -0.844128
v 5.623505 37.357197 1.120378
v 5.985001 35.426220 1.934128
v 6.346512 33.495396 1.120327
v 6.496185 32.695850 -0.844101
vt 0.576118 0.988287
vt 0.597642 0.711605
vt 0.683089 0.716606
vt 0.672189 0.993910
vt 0.768664 0.718327
vt 0.768406 0.995845
vt 0.854242 0.716765
vt 0.864626 0.994089
vt 0.939698 0.711923
vt 0.960708 0.988645
vt 0.010605 0.877943
vt 0.094674 0.613464
vt 0.176727 0.637824
vt 0.102862 0.905331
vt 0.259653 0.659019
vt 0.196100 0.929162
vt 0.343332 0.677019
vt 0.290184 0.949400
vt 0.427639 0.691797
vt 0.384975 0.966016
vt 0.512451 0.703331
vt 0.480333 0.978985
vt 0.365838 0.077276
vt 0.416562 0.045461
vt 0.440225 0.139311
vt 0.343504 0.132814
vt 0.362653 0.194697
vt 0.403935 0.229256
vt 0.463625 0.233378
vt 0.514366 0.201623
vt 0.536765 0.146088
vt 0.522260 0.087966
vt 0.476323 0.049514
vt 0.702360 0.444911
vt 0.832101 0.539173
vt 0.751917 0.597430
vt 0.652803 0.597430
vt 0.572619 0.539173
vt 0.541992 0.444911
vt 0.572619 0.350649
vt 0.652803 0.292392
vt 0.751916 0.292392
vt 0.832101 0.350649
vt 0.862728 0.444911
vt 0.900371 0.591526
vt 0.923587 0.609770
vt 0.791997 0.706255
vt 0.781417 0.678537
vt 0.612722 0.706254
vt 0.623303 0.678537
vt 0.481132 0.609770
vt 0.504349 0.591526
vt 0.425397 0.444910
vt 0.455264 0.444911
vt 0.481132 0.280052
vt 0.504350 0.298295
vt 0.612723 0.183567
vt 0.623302 0.211285
vt 0.788477 0.179303
vt 0.778200 0.198863
vt 0.931895 0.296372
vt 0.905039 0.303464
vt 0.979323 0.444911
vt 0.949456 0.444911
vt 0.883543 0.576548
vt 0.926315 0.444911
vt 0.543357 0.063258
vt 0.531768 0.071677
vt 0.477570 0.032300
vt 0.481997 0.018677
vt 0.771566 0.657905
vt 0.410578 0.032300
vt 0.406151 0.018677
vt 0.633154 0.657905
vt 0.356380 0.071677
vt 0.344791 0.063258
vt 0.521177 0.576548
vt 0.335678 0.135391
vt 0.321354 0.135391
vt 0.478405 0.444911
vt 0.356380 0.199105
vt 0.344791 0.207524
vt 0.521177 0.313274
vt 0.410578 0.238482
vt 0.406151 0.252105
vt 0.633154 0.231917
vt 0.477570 0.238482
vt 0.481997 0.252105
vt 0.771566 0.231917
vt 0.531768 0.199105
vt 0.543357 0.207524
vt 0.883543 0.313274
vt 0.552470 0.135391
vt 0.566794 0.135391
vt 0.210805 0.430926
vt 0.242397 0.430926
vt 0.242397 0.571219
vt 0.210805 0.571219
vt 0.276297 0.430926
vt 0.276297 0.571219
vt 0.312580 0.430926
vt 0.312580 0.571219
vt 0.024930 0.430926
vt 0.062497 0.430926
vt 0.062497 0.571219
vt 0.024930 0.571219
vt 0.099841 0.430926
vt 0.099841 0.571219
vt 0.138390 0.430926
vt 0.138390 0.571219
vt 0.180146 0.430926
vt 0.180146 0.571219
vt 0.210805 0.023093
vt 0.242397 0.023093
vt 0.242397 0.334035
vt 0.210805 0.334035
vt 0.276297 0.023093
vt 0.276297 0.334035
vt 0.312580 0.023093
vt 0.312580 0.334035
vt 0.024930 0.023093
vt 0.062497 0.023093
vt 0.062497 0.334035
vt 0.024930 0.334035
vt 0.099841 0.023093
vt 0.099841 0.334035
vt 0.138390 0.023093
vt 0.138390 0.334035
vt 0.180146 0.023093
vt 0.180146 0.334035
vt 0.380044 0.429816
vt 0.344956 0.429816
vt 0.344956 0.416525
vt 0.380044 0.416525
vt 0.380044 0.429816
vt 0.380044 0.416525
vt 0.380044 0.429816
vt 0.344956 0.429816
vt 0.344956 0.416525
vt 0.380044 0.416525
vt 0.380044 0.429816
vt 0.380044 0.416525
vt 0.344956 0.429816
vt 0.344956 0.416525
vt 0.380044 0.429816
vt 0.380044 0.416525
vt 0.344956 0.429816
vt 0.344956 0.416525
vt 0.344956 0.250808
vt 0.380044 0.250808
vt 0.380044 0.250808
vt 0.344956 0.250808
vt 0.380044 0.250808
vt 0.380044 0.250808
vt 0.344956 0.250808
vt 0.380044 0.250808
vt 0.344956 0.250808
vn 0.807458 -0.062055 -0.586653
vn 0.807458 -0.062055 -0.586652
vn 0.308421 -0.062055 -0.949224
vn 0.308421 -0.062055 -0.949224
vn 0.308421 -0.062055 -0.949224
vn 0.308421 -0.062055 -0.949224
vn -0.308421 -0.062055 -0.949224
vn -0.308421 -0.062055 -0.949224
vn -0.308421 -0.062055 -0.949224
vn -0.308421 -0.062055 -0.949224
vn -0.807458 -0.062055 -0.586652
vn -0.807458 -0.062055 -0.586652
vn -0.807458 -0.062055 -0.586652
vn -0.807458 -0.062055 -0.586652
vn -0.998073 -0.062055 0.000000
vn -0.998073 -0.062055 0.000000
vn -0.998073 -0.062055 0.000000
vn -0.998073 -0.062055 0.000000
vn -0.807458 -0.062055 0.586652
vn -0.807458 -0.062055 0.586652
vn -0.807458 -0.062055 0.586652
vn -0.807458 -0.062055 0.586652
vn -0.308421 -0.062055 0.949224
vn -0.308421 -0.062055 0.949224
vn -0.308421 -0.062055 0.949224
vn -0.308421 -0.062055 0.949224
vn 0.308421 -0.062055 0.949224
vn 0.308422 -0.062055 0.949224
vn 0.308422 -0.062055 0.949224
vn 0.308421 -0.062055 0.949224
vn 0.807458 -0.062056 0.586653
vn 0.807458 -0.062056 0.586653
vn 0.807458 -0.062056 0.586653
vn 0.807458 -0.062056 0.586653
vn 0.998073 -0.062055 0.000001
vn 0.998073 -0.062055 0.000001
vn 0.998073 -0.062055 0.000001
vn 0.998073 -0.062055 0.000001
vn 0.807458 -0.062055 -0.586652
vn 0.807458 -0.062055 -0.586653
vn 0.000000 -1.000000 0.000000
vn 0.000000 -1.000000 0.000000
vn 0.000000 -1.000000 0.000000
vn 0.000000 -1.000000 0.000000
vn 0.000000 -1.000000 0.000000
vn 0.000000 -1.000000 0.000000
vn 0.000000 -1.000000 0.000000
vn 0.000000 -1.000000 0.000000
vn 0.000000 -1.000000 0.000000
vn 0.000000 -1.000000 0.000000
vn 0.000000 -1.000000 0.000000
vn 0.000000 -1.000000 0.000000
vn 0.000000 -1.000000 0.000000
vn 0.000000 -1.000000 0.000000
vn 0.000000 -1.000000 0.000000
vn 0.000000 -1.000000 0.000000
vn 0.000000 -1.000000 0.000000
vn 0.000000 -1.000000 0.000000
vn 0.000000 -1.000000 0.000000
vn 0.000000 -1.000000 0.000000
vn 0.000000 1.000000 0.000000
vn 0.000000 1.000000 0.000000
vn 0.000000 1.000000 0.000000
vn 0.000000 1.000000 0.000000
vn 0.000000 1.000000 0.000000
vn 0.000000 1.000000 0.000000
vn 0.000000 1.000000 0.000000
vn 0.000000 1.000000 0.000000
vn 0.000000 1.000000 0.000000
vn 0.000000 1.000000 0.000000
vn 0.000000 1.000000 0.000000
vn 0.000000 1.000000 0.000000
vn 0.000000 1.000000 0.000000
vn 0.000000 1.000000 0.000000
vn 0.000000 1.000000 0.000000
vn 0.000000 1.000000 0.000000
vn 0.000000 1.000000 0.000000
vn 0.000000 1.000000 0.000000
vn 0.000000 1.000000 0.000000
vn 0.000000 1.000000 0.000000
vn 0.809017 0.000000 -0.587785
vn 0.809017 0.000000 -0.587785
vn 0.309017 0.000000 -0.951056
vn 0.309017 0.000000 -0.951056
vn 0.309017 0.000000 -0.951056
vn 0.309017 0.000000 -0.951056
vn -0.309017 0.000000 -0.951057
vn -0.309017 0.000000 -0.951057
vn -0.309017 0.000000 -0.951057
vn -0.309017 0.000000 -0.951057
vn -0.809017 0.000000 -0.587786
vn -0.809017 0.000000 -0.587786
vn -0.809017 0.000000 -0.587786
vn -0.809017 0.000000 -0.587786
vn -1.000000 0.000000 0.000000
vn -1.000000 0.000000 0.000000
vn -1.000000 0.000000 0.000000
vn -1.000000 0.000000 0.000000
vn -0.809017 0.000000 0.587786
vn -0.809017 0.000000 0.587786
vn -0.809017 0.000000 0.587786
vn -0.809017 0.000000 0.587786
vn -0.309017 0.000000 0.951056
vn -0.309017 0.000000 0.951056
vn -0.309017 0.000000 0.951056
vn -0.309017 0.000000 0.951056
vn 0.309017 0.000000 0.951056
vn 0.309017 0.000000 0.951056
vn 0.309017 0.000000 0.951056
vn 0.309017 0.000000 0.951056
vn 0.809016 0.000000 0.587786
vn 0.809016 0.000000 0.587786
vn 0.809016 0.000000 0.587786
vn 0.809016 0.000000 0.587786
vn 1.000000 0.000000 0.000000
vn 1.000000 0.000000 0.000000
vn 0.809017 0.000000 -0.587785
vn 1.000000 0.000000 0.000000
vn 1.000000 0.000000 0.000000
vn 0.809017 0.000000 -0.587785
vn 0.000000 1.000000 0.000000
vn 0.000000 1.000000 0.000000
vn 0.000000 1.000000 0.000000
vn 0.000000 1.000000 0.000000
vn 0.000000 -1.000000 0.000000
vn 0.000000 -1.000000 0.000000
vn 0.000000 -1.000000 0.000000
vn 0.000000 -1.000000 0.000000
vn 0.000000 1.000000 0.000000
vn 0.000000 1.000000 -0.000001
vn 0.000000 1.000000 -0.000001
vn 0.000000 1.000000 0.000000
vn 0.000000 -1.000000 0.000000
vn 0.000000 -1.000000 0.000000
vn 0.000000 -1.000000 0.000000
vn 0.000000 -1.000000 0.000000
vn 0.000000 1.000000 -0.000001
vn 0.000000 1.000000 0.000000
vn 0.000000 1.000000 0.000000
vn 0.000000 1.000000 -0.000001
vn 0.000000 -1.000000 0.000000
vn 0.000000 -1.000000 0.000000
vn 0.000000 -1.000000 0.000000
vn 0.000000 -1.000000 0.000000
vn 0.000000 1.000000 0.000000
vn 0.000000 1.000000 0.000000
vn 0.000000 1.000000 0.000000
vn 0.000000 1.000000 0.000000
vn 0.000000 -1.000000 0.000000
vn 0.000000 -1.000000 0.000000
vn 0.000000 -1.000000 0.000000
vn 0.000000 -1.000000 0.000000
vn 0.000000 1.000000 0.000000
vn 0.000000 1.000000 0.000000
vn 0.000000 1.000000 0.000000
vn 0.000000 1.000000 0.000000
vn 0.000000 -1.000000 0.000000
vn 0.000000 -1.000000 0.000000
vn 0.000000 -1.000000 0.000000
vn 0.000000 -1.000000 0.000000
vn 0.000000 1.000000 0.000000
vn 0.000000 1.000000 -0.000001
vn 0.000000 1.000000 -0.000001
vn 0.000000 1.000000 0.000000
vn 0.000000 -1.000000 0.000000
vn 0.000000 -1.000000 0.000000
vn 0.000000 -1.000000 0.000000
vn 0.000000 -1.000000 0.000000
vn 0.000000 1.000000 -0.000001
vn 0.000000 1.000000 0.000000
vn 0.000000 1.000000 0.000000
vn 0.000000 1.000000 -0.000001
vn 0.000000 -1.000000 0.000000
vn 0.000000 -1.000000 0.000000
vn 0.000000 -1.000000 0.000000
vn 0.000000 -1.000000 0.000000
vn 0.000000 1.000000 0.000000
vn 0.000000 1.000000 0.000000
vn 0.000000 1.000000 0.000000
vn 0.000000 1.000000 0.000000
vn 0.000000 -1.000000 0.000000
vn 0.000000 -1.000000 0.000000
vn 0.000000 -1.000000 0.000000
vn 0.000000 -1.000000 0.000000
vn 0.000000 1.000000 0.000000
vn 0.000000 1.000000 0.000000
vn 0.000000 1.000000 0.000000
vn 0.000000 1.000000 0.000000
vn 0.000000 -1.000000 0.000000
vn 0.000000 -1.000000 0.000000
vn 0.000000 -1.000000 0.000000
vn 0.000000 -1.000000 0.000000
vn 0.000000 1.000000 0.000000
vn 0.000000 1.000000 0.000000
vn 0.000000 1.000000 0.000000
vn 0.000000 1.000000 0.000000
vn 0.000000 -1.000000 0.000000
vn 0.000000 -1.000000 0.000000
vn 0.000000 -1.000000 0.000000
vn 0.000000 -1.000000 0.000000
vn 0.670141 0.560226 -0.486886
vn 0.670141 0.560226 -0.486885
vn 0.255972 0.560226 -0.787798
vn 0.255971 0.560226 -0.787798
vn 0.255971 0.560226 -0.787798
vn 0.255972 0.560226 -0.787798
vn -0.255971 0.560225 -0.787798
vn -0.255971 0.560225 -0.787798
vn -0.255971 0.560225 -0.787798
vn -0.255971 0.560225 -0.787798
vn -0.670141 0.560226 -0.486886
vn -0.670141 0.560226 -0.486886
vn -0.670141 0.560226 -0.486886
vn -0.670141 0.560226 -0.486886
vn -0.828340 0.560226 0.000000
vn -0.828340 0.560226 0.000000
vn -0.828340 0.560226 0.000000
vn -0.828340 0.560226 0.000000
vn -0.670141 0.560226 0.486886
vn -0.670141 0.560226 0.486886
vn -0.670141 0.560226 0.486886
vn -0.670141 0.560226 0.486886
vn -0.255971 0.560225 0.787798
vn -0.255971 0.560225 0.787798
vn -0.255971 0.560225 0.787798
vn -0.255971 0.560225 0.787798
vn 0.255971 0.560226 0.787798
vn 0.255971 0.560226 0.787798
vn 0.255971 0.560226 0.787798
vn 0.255971 0.560226 0.787798
vn 0.670141 0.560226 0.486886
vn 0.670141 0.560226 0.486886
vn 0.670141 0.560226 0.486886
vn 0.670141 0.560226 0.486886
vn 0.828340 0.560226 0.000000
vn 0.828340 0.560226 0.000000
vn 0.670141 0.560226 -0.486886
vn 0.828340 0.560226 0.000000
vn 0.828340 0.560226 0.000000
vn 0.670141 0.560226 -0.486885
vn 0.203468 -0.301205 -0.931599
vn 0.184368 -0.315620 -0.930802
vn 0.102314 -0.374652 -0.921503
vn 0.102314 -0.374652 -0.921503
vn -0.193111 0.309821 -0.930978
vn -0.181249 0.318722 -0.930358
vn -0.104668 0.373825 -0.921574
vn -0.104668 0.373825 -0.921574
vn -0.461588 0.792162 -0.399269
vn -0.452862 0.797443 -0.398749
vn -0.253236 0.890788 -0.377318
vn -0.253236 0.890788 -0.377318
vn -0.452862 0.797443 0.398749
vn -0.461588 0.792162 0.399269
vn -0.253236 0.890788 0.377318
vn -0.253236 0.890788 0.377318
vn -0.181248 0.318721 0.930358
vn -0.193111 0.309820 0.930978
vn -0.104668 0.373824 0.921575
vn -0.104668 0.373824 0.921575
vn 0.184367 -0.315618 0.930803
vn 0.203467 -0.301203 0.931600
vn 0.102313 -0.374651 0.921504
vn 0.102313 -0.374651 0.921504
vn 0.491708 -0.772213 0.402382
vn 0.517879 -0.754443 0.403259
vn 0.239358 -0.894788 0.376912
vn 0.239358 -0.894788 0.376912
vn 0.517879 -0.754443 -0.403258
vn 0.491708 -0.772213 -0.402382
vn 0.239358 -0.894788 -0.376911
vn 0.239358 -0.894788 -0.376911
vn 0.385942 -0.065391 -0.920203
vn 0.385942 -0.065391 -0.920203
vn 0.371610 -0.105315 -0.922396
vn 0.379581 -0.083366 -0.921395
vn -0.385031 0.067340 -0.920444
vn -0.385031 0.067340 -0.920444
vn -0.362674 0.114580 -0.924845
vn -0.373999 0.090953 -0.922958
vn -0.912640 0.162780 -0.374954
vn -0.912640 0.162780 -0.374954
vn -0.881795 0.270263 -0.386517
vn -0.890309 0.244481 -0.384159
vn -0.912640 0.162780 0.374954
vn -0.912640 0.162780 0.374954
vn -0.890309 0.244481 0.384159
vn -0.881795 0.270263 0.386518
vn -0.385030 0.067339 0.920444
vn -0.385030 0.067339 0.920444
vn -0.373998 0.090953 0.922959
vn -0.362673 0.114580 0.924846
vn 0.385940 -0.065391 0.920203
vn 0.385940 -0.065391 0.920203
vn 0.379579 -0.083365 0.921396
vn 0.371609 -0.105315 0.922397
vn 0.915189 -0.151108 0.373625
vn 0.915189 -0.151108 0.373625
vn 0.906886 -0.193940 0.374092
vn 0.902473 -0.213577 0.374068
vn 0.915189 -0.151108 -0.373625
vn 0.915189 -0.151108 -0.373625
vn 0.902474 -0.213577 -0.374067
vn 0.906886 -0.193940 -0.374092
vn 0.379581 -0.083366 -0.921395
vn 0.371610 -0.105315 -0.922396
vn 0.184368 -0.315620 -0.930802
vn 0.203468 -0.301205 -0.931599
vn -0.373999 0.090953 -0.922958
vn -0.362674 0.114580 -0.924845
vn -0.181249 0.318722 -0.930358
vn -0.193111 0.309821 -0.930978
vn -0.890309 0.244481 -0.384159
vn -0.881795 0.270263 -0.386517
vn -0.452862 0.797443 -0.398749
vn -0.461588 0.792162 -0.399269
vn -0.881795 0.270263 0.386518
vn -0.890309 0.244481 0.384159
vn -0.461588 0.792162 0.399269
vn -0.452862 0.797443 0.398749
vn -0.362673 0.114580 0.924846
vn -0.373998 0.090953 0.922959
vn -0.193111 0.309820 0.930978
vn -0.181248 0.318721 0.930358
vn 0.371609 -0.105315 0.922397
vn 0.379579 -0.083365 0.921396
vn 0.203467 -0.301203 0.931600
vn 0.184367 -0.315618 0.930803
vn 0.902473 -0.213577 0.374068
vn 0.906886 -0.193940 0.374092
vn 0.517879 -0.754443 0.403259
vn 0.491708 -0.772213 0.402382
vn 0.906886 -0.193940 -0.374092
vn 0.902474 -0.213577 -0.374067
vn 0.491708 -0.772213 -0.402382
vn 0.517879 -0.754443 -0.403258
vn 0.982926 0.184003 -0.000007
vn 0.982922 0.184024 -0.000011
vn 0.982922 0.184024 -0.000011
vn 0.982926 0.184003 -0.000007
vn 0.982922 0.184024 -0.000011
vn 0.982919 0.184038 -0.000011
vn 0.982919 0.184038 -0.000011
vn 0.982922 0.184024 -0.000011
vn 0.982919 0.184038 -0.000011
vn 0.982921 0.184028 0.000000
vn 0.982921 0.184028 0.000000
vn 0.982919 0.184038 -0.000011
vn 0.982921 0.184028 0.000000
vn 0.982925 0.184009 -0.000021
vn 0.982925 0.184009 -0.000021
vn 0.982921 0.184028 0.000000
vn 0.982925 0.184009 -0.000021
vn 0.982922 0.184021 -0.000050
vn 0.982922 0.184021 -0.000050
vn 0.982925 0.184009 -0.000021
vn 0.982922 0.184021 -0.000050
vn 0.982921 0.184028 -0.000022
vn 0.982921 0.184028 -0.000022
vn 0.982922 0.184021 -0.000050
vn 0.982921 0.184028 -0.000022
vn 0.982925 0.184006 0.000000
vn 0.982925 0.184006 0.000000
vn 0.982921 0.184028 -0.000022
vn 0.982925 0.184006 0.000000
vn 0.982926 0.184003 -0.000007
vn 0.982926 0.184003 -0.000007
vn 0.982925 0.184006 0.000000
vn -0.101911 0.370040 0.923409
vn -0.101911 0.370040 0.923409
vn -0.101911 0.370040 0.923409
vn -0.101911 0.370040 0.923409
vn 0.101935 -0.370032 0.923410
vn 0.101935 -0.370032 0.923410
vn 0.101935 -0.370032 0.923410
vn 0.101935 -0.370032 0.923410
vn 0.245460 -0.891155 0.381565
vn 0.245460 -0.891155 0.381565
vn 0.245460 -0.891155 0.381565
vn 0.245460 -0.891155 0.381565
vn 0.245456 -0.891185 -0.381498
vn 0.245456 -0.891185 -0.381498
vn 0.245456 -0.891185 -0.381498
vn 0.245456 -0.891185 -0.381498
vn 0.101909 -0.370056 -0.923403
vn 0.101909 -0.370056 -0.923403
vn 0.101909 -0.370056 -0.923403
vn 0.101909 -0.370056 -0.923403
vn -0.101948 0.370072 -0.923392
vn -0.101948 0.370072 -0.923392
vn -0.101948 0.370072 -0.923392
vn -0.101948 0.370072 -0.923392
vn -0.245463 0.891183 -0.381497
vn -0.245463 0.891183 -0.381497
vn -0.245463 0.891183 -0.381497
vn -0.245463 0.891183 -0.381497
vn -0.245448 0.891169 0.381542
vn -0.245448 0.891169 0.381542
vn -0.245448 0.891169 0.381541
vn -0.245448 0.891169 0.381542
s off
g pCylinder9
usemtl lambert2SG
f 11/1/1 1/2/2 2/3/3 12/4/4
f 12/4/5 2/3/6 3/5/7 13/6/8
f 13/6/9 3/5/10 4/7/11 14/8/12
f 14/8/13 4/7/14 5/9/15 15/10/16
f 15/11/17 5/12/18 6/13/19 16/14/20
f 16/14/21 6/13/22 7/15/23 17/16/24
f 17/16/25 7/15/26 8/17/27 18/18/28
f 18/18/29 8/17/30 9/19/31 19/20/32
f 19/20/33 9/19/34 10/21/35 20/22/36
f 20/22/37 10/21/38 1/2/39 11/1/40
f 3/23/41 2/24/42 21/25/43 4/26/44
f 5/27/45 4/26/46 21/25/47 6/28/48
f 7/29/49 6/28/50 21/25/51 8/30/52
f 9/31/53 8/30/54 21/25/55 10/32/56
f 1/33/57 10/32/58 21/25/59 2/24/60
f 53/34/61 52/35/62 54/36/63 55/37/64
f 53/34/65 55/37/66 56/38/67 57/39/68
f 53/34/69 57/39/70 58/40/71 59/41/72
f 53/34/73 59/41/74 60/42/75 61/43/76
f 53/34/77 61/43/78 62/44/79 52/35/80
f 33/45/81 32/46/82 34/47/83 35/48/84
f 35/48/85 34/47/86 36/49/87 37/50/88
f 37/50/89 36/49/90 38/51/91 39/52/92
f 39/52/93 38/51/94 40/53/95 41/54/96
f 41/54/97 40/53/98 42/55/99 43/56/100
f 43/56/101 42/55/102 44/57/103 45/58/104
f 45/58/105 44/57/106 46/59/107 47/60/108
f 47/60/109 46/59/110 48/61/111 49/62/112
f 49/62/113 48/61/114 50/63/115 51/64/116
f 33/45/117 51/64/118 50/63/119 32/46/120
f 33/45/121 22/65/122 31/66/123 51/64/124
f 32/67/125 11/68/126 12/69/127 34/70/128
f 33/45/129 35/48/130 23/71/131 22/65/132
f 34/70/133 12/69/134 13/72/135 36/73/136
f 35/48/137 37/50/138 24/74/139 23/71/140
f 36/73/141 13/72/142 14/75/143 38/76/144
f 37/50/145 39/52/146 25/77/147 24/74/148
f 38/76/149 14/75/150 15/78/151 40/79/152
f 39/52/153 41/54/154 26/80/155 25/77/156
f 40/79/157 15/78/158 16/81/159 42/82/160
f 41/54/161 43/56/162 27/83/163 26/80/164
f 42/82/165 16/81/166 17/84/167 44/85/168
f 43/56/169 45/58/170 28/86/171 27/83/172
f 44/85/173 17/84/174 18/87/175 46/88/176
f 45/58/177 47/60/178 29/89/179 28/86/180
f 46/88/181 18/87/182 19/90/183 48/91/184
f 47/60/185 49/62/186 30/92/187 29/89/188
f 48/91/189 19/90/190 20/93/191 50/94/192
f 49/62/193 51/64/194 31/66/195 30/92/196
f 32/67/197 50/94/198 20/93/199 11/68/200
f 52/35/201 22/65/202 23/71/203 54/36/204
f 54/36/205 23/71/206 24/74/207 55/37/208
f 55/37/209 24/74/210 25/77/211 56/38/212
f 56/38/213 25/77/214 26/80/215 57/39/216
f 57/39/217 26/80/218 27/83/219 58/40/220
f 58/40/221 27/83/222 28/86/223 59/41/224
f 59/41/225 28/86/226 29/89/227 60/42/228
f 60/42/229 29/89/230 30/92/231 61/43/232
f 61/43/233 30/92/234 31/66/235 62/44/236
f 52/35/237 62/44/238 31/66/239 22/65/240
f 87/95/241 88/96/242 72/97/243 71/98/244
f 88/96/245 89/99/246 73/100/247 72/97/248
f 89/99/249 90/101/250 74/102/251 73/100/252
f 90/103/253 91/104/254 75/105/255 74/106/256
f 91/104/257 92/107/258 76/108/259 75/105/260
f 92/107/261 93/109/262 77/110/263 76/108/264
f 93/109/265 94/111/266 78/112/267 77/110/268
f 94/111/269 87/95/270 71/98/271 78/112/272
f 63/113/273 64/114/274 80/115/275 79/116/276
f 64/114/277 65/117/278 81/118/279 80/115/280
f 65/117/281 66/119/282 82/120/283 81/118/284
f 66/121/285 67/122/286 83/123/287 82/124/288
f 67/122/289 68/125/290 84/126/291 83/123/292
f 68/125/293 69/127/294 85/128/295 84/126/296
f 69/127/297 70/129/298 86/130/299 85/128/300
f 70/129/301 63/113/302 79/116/303 86/130/304
f 79/116/305 80/115/306 88/96/307 87/95/308
f 80/115/309 81/118/310 89/99/311 88/96/312
f 81/118/313 82/120/314 90/101/315 89/99/316
f 82/124/317 83/123/318 91/104/319 90/103/320
f 83/123/321 84/126/322 92/107/323 91/104/324
f 84/126/325 85/128/326 93/109/327 92/107/328
f 85/128/329 86/130/330 94/111/331 93/109/332
f 86/130/333 79/116/334 87/95/335 94/111/336
f 71/131/337 72/132/338 96/133/339 95/134/340
f 72/132/341 73/135/342 97/136/343 96/133/344
f 73/137/345 74/138/346 98/139/347 97/140/348
f 74/138/349 75/141/350 99/142/351 98/139/352
f 75/141/353 76/143/354 100/144/355 99/142/356
f 76/143/357 77/145/358 101/146/359 100/144/360
f 77/145/361 78/147/362 102/148/363 101/146/364
f 78/147/365 71/131/366 95/134/367 102/148/368
f 95/134/369 96/133/370 104/149/371 103/150/372
f 96/133/373 97/136/374 105/151/375 104/149/376
f 97/140/377 98/139/378 106/152/379 105/153/380
f 98/139/381 99/142/382 107/154/383 106/152/384
f 99/142/385 100/144/386 108/155/387 107/154/388
f 100/144/389 101/146/390 109/156/391 108/155/392
f 101/146/393 102/148/394 110/157/395 109/156/396
f 102/148/397 95/134/398 103/150/399 110/157/400
